{
  "accessors": [
    {
      "bufferView": 2,
      "componentType": 5126,
      "count": 9928,
      "max": [
        25.900470733642578,
        12.034760475158691,
        23.917068481445312
      ],
      "min": [
        -25.903112411499023,
        -21.150213241577148,
        0.24728399515151978
      ],
      "type": "VEC3"
    },
    {
      "bufferView": 2,
      "byteOffset": 119136,
      "componentType": 5126,
      "count": 9928,
      "max": [
        1,
        1,
        1
      ],
      "min": [
        -1,
        -1,
        -1
      ],
      "type": "VEC3"
    },
    {
      "bufferView": 3,
      "componentType": 5126,
      "count": 9928,
      "max": [
        1,
        0.99999940395355225,
        0.99999403953552246,
        1
      ],
      "min": [
        -0.9999995231628418,
        -0.99999940395355225,
        -0.99999403953552246,
        -1
      ],
      "type": "VEC4"
    },
    {
      "bufferView": 1,
      "componentType": 5126,
      "count": 9928,
      "max": [
        0.99728101491928101,
        0.99470502138137817
      ],
      "min": [
        0.0093790004029870033,
        0.027434999123215675
      ],
      "type": "VEC2"
    },
    {
      "bufferView": 0,
      "componentType": 5125,
      "count": 53388,
      "max": [
        9927
      ],
      "min": [
        0
      ],
      "type": "SCALAR"
    },
    {
      "bufferView": 2,
      "byteOffset": 238272,
      "componentType": 5126,
      "count": 4372,
      "max": [
        21.86016845703125,
        10.665632247924805,
        22.453071594238281
      ],
      "min": [
        -20.720903396606445,
        -15.281632423400879,
        8.9988374710083008
      ],
      "type": "VEC3"
    },
    {
      "bufferView": 2,
      "byteOffset": 290736,
      "componentType": 5126,
      "count": 4372,
      "max": [
        1,
        1,
        0.99999147653579712
      ],
      "min": [
        -1,
        -1,
        -1
      ],
      "type": "VEC3"
    },
    {
      "bufferView": 3,
      "byteOffset": 158848,
      "componentType": 5126,
      "count": 4372,
      "max": [
        0.99975216388702393,
        0.99997991323471069,
        0.9999617338180542,
        1
      ],
      "min": [
        -0.99994748830795288,
        -0.99971866607666016,
        -0.99996894598007202,
        -1
      ],
      "type": "VEC4"
    },
    {
      "bufferView": 1,
      "byteOffset": 79424,
      "componentType": 5126,
      "count": 4372,
      "max": [
        0.99301201105117798,
        0.98305398225784302
      ],
      "min": [
        -0.17398199439048767,
        -0.11841899901628494
      ],
      "type": "VEC2"
    },
    {
      "bufferView": 0,
      "byteOffset": 213552,
      "componentType": 5125,
      "count": 23304,
      "max": [
        4371
      ],
      "min": [
        0
      ],
      "type": "SCALAR"
    }
  ],
  "asset": {
    "extras": {
      "author": "CoryRichards (https://sketchfab.com/CoryRichards)",
      "license": "CC-BY-4.0 (http://creativecommons.org/licenses/by/4.0/)",
      "source": "https://sketchfab.com/3d-models/gamecube-controller-21983501bac64993ac09cdc7936ffdf2",
      "title": "Gamecube Controller"
    },
    "generator": "Sketchfab-4.54.1",
    "version": "2.0"
  },
  "bufferViews": [
    {
      "buffer": 0,
      "byteLength": 306768,
      "byteOffset": 0,
      "name": "floatBufferViews",
      "target": 34963
    },
    {
      "buffer": 0,
      "byteLength": 114400,
      "byteOffset": 306768,
      "byteStride": 8,
      "name": "floatBufferViews",
      "target": 34962
    },
    {
      "buffer": 0,
      "byteLength": 343200,
      "byteOffset": 421168,
      "byteStride": 12,
      "name": "floatBufferViews",
      "target": 34962
    },
    {
      "buffer": 0,
      "byteLength": 228800,
      "byteOffset": 764368,
      "byteStride": 16,
      "name": "floatBufferViews",
      "target": 34962
    }
  ],
  "buffers": [
    {
      "byteLength": 993168,
      "uri": "scene.bin"
    }
  ],
  "images": [
    {
      "uri": "textures/phong2SG_baseColor.png"
    },
    {
      "uri": "textures/phong2SG_normal.png"
    },
    {
      "uri": "textures/phong2SG_metallicRoughness.png"
    }
  ],
  "materials": [
    {
      "doubleSided": true,
      "name": "phong2SG",
      "normalTexture": {
        "index": 1,
        "scale": 1,
        "texCoord": 0
      },
      "pbrMetallicRoughness": {
        "baseColorFactor": [
          1,
          1,
          1,
          1
        ],
        "baseColorTexture": {
          "index": 0,
          "texCoord": 0
        },
        "metallicFactor": 0,
        "metallicRoughnessTexture": {
          "index": 2,
          "texCoord": 0
        },
        "roughnessFactor": 1
      }
    }
  ],
  "meshes": [
    {
      "primitives": [
        {
          "attributes": {
            "NORMAL": 1,
            "POSITION": 0,
            "TANGENT": 2,
            "TEXCOORD_0": 3
          },
          "indices": 4,
          "material": 0,
          "mode": 4
        }
      ]
    },
    {
      "primitives": [
        {
          "attributes": {
            "NORMAL": 6,
            "POSITION": 5,
            "TANGENT": 7,
            "TEXCOORD_0": 8
          },
          "indices": 9,
          "material": 0,
          "mode": 4
        }
      ]
    }
  ],
  "nodes": [
    {
      "children": [
        1
      ],
      "name": "RootNode (gltf orientation matrix)",
      "rotation": [
        -0.70710678118654746,
        -0,
        -0,
        0.70710678118654757
      ]
    },
    {
      "children": [
        2
      ],
      "name": "RootNode (model correction matrix)"
    },
    {
      "children": [
        3,
        4
      ],
      "name": "GameCube_Controller_OBJ_High.obj.cleaner.materialmerger.gles"
    },
    {
      "mesh": 0,
      "name": ""
    },
    {
      "mesh": 1,
      "name": ""
    }
  ],
  "samplers": [
    {
      "magFilter": 9729,
      "minFilter": 9987,
      "wrapS": 10497,
      "wrapT": 10497
    }
  ],
  "scene": 0,
  "scenes": [
    {
      "name": "OSG_Scene",
      "nodes": [
        0
      ]
    }
  ],
  "textures": [
    {
      "sampler": 0,
      "source": 0
    },
    {
      "sampler": 0,
      "source": 1
    },
    {
      "sampler": 0,
      "source": 2
    }
  ]
}

